<?xml version="1.0" encoding="UTF-8"?>
<svg width="46px" height="46px" viewBox="0 0 46 46" version="1.1" xmlns="http://www.w3.org/2000/svg" xmlns:xlink="http://www.w3.org/1999/xlink">
    <!-- Generator: Sketch 46 (44423) - http://www.bohemiancoding.com/sketch -->
    <title>Page 1</title>
    <desc>Created with Sketch.</desc>
    <defs>
        <polygon id="path-1" points="0.201638462 0.0735263158 10.7193308 0.0735263158 10.7193308 10.86855 0.201638462 10.86855 0.201638462 0.0735263158"></polygon>
        <polygon id="path-3" points="6.93134615 0.0611423077 6.93134615 6.79245 0.199257692 6.79245 0.199257692 0.0611423077 6.93134615 0.0611423077"></polygon>
        <polygon id="path-5" points="1.01643954e-20 26.3830412 1.01643954e-20 0.073025 45.9271429 0.073025 45.9271429 46 1.01643954e-20 46 1.01643954e-20 26.3830412 3.84682857 26.3830412 3.84682857 22.5127162 -2.85714286e-05 22.5127162 -2.85714286e-05 26.3830412"></polygon>
    </defs>
    <g id="Page-1" stroke="none" stroke-width="1" fill="none" fill-rule="evenodd">
        <g>
            <g id="Group-3" transform="translate(14.000000, 0.000000)">
                <mask id="mask-2" fill="white">
                    <use xlink:href="#path-1"></use>
                </mask>
                <g id="Clip-2"></g>
                <path d="M10.7193308,5.47102368 C10.7193308,8.45231316 8.36533077,10.86855 5.46048462,10.86855 C2.55592051,10.86855 0.201638462,8.45231316 0.201638462,5.47102368 C0.201638462,2.49031316 2.55592051,0.0734973684 5.46048462,0.0734973684 C8.36533077,0.0734973684 10.7193308,2.49031316 10.7193308,5.47102368" id="Fill-1" fill="#D8384B" mask="url(#mask-2)"></path>
            </g>
            <path d="M17,27.5 C17,30.5378902 14.5370053,33 11.5,33 C8.46210984,33 6,30.5378902 6,27.5 C6,24.4626998 8.46210984,22 11.5,22 C14.5370053,22 17,24.4626998 17,27.5" id="Fill-4" fill="#F9BE00"></path>
            <path d="M41,11.5 C41,14.5378902 38.5375292,17 35.5001475,17 C32.4612909,17 30,14.5378902 30,11.5 C30,8.46269977 32.4612909,6 35.5001475,6 C38.5375292,6 41,8.46269977 41,11.5" id="Fill-6" fill="#00A0D9"></path>
            <path d="M13,15.50028 C13,17.4329654 11.4334,19 9.5,19 C7.56716,19 6,17.4329654 6,15.50028 C6,13.5667547 7.56716,12 9.5,12 C11.4334,12 13,13.5667547 13,15.50028" id="Fill-8" fill="#F9BE00"></path>
            <path d="M21,38.50028 C21,40.4338053 19.4335253,42 17.5008399,42 C15.5667547,42 14,40.4338053 14,38.50028 C14,36.5673146 15.5667547,35 17.5008399,35 C19.4335253,35 21,36.5673146 21,38.50028" id="Fill-10" fill="#D8384B"></path>
            <path d="M26,17.5 C26,19.4328108 24.4337133,21 22.5004199,21 C20.5662867,21 19,19.4328108 19,17.5 C19,15.5669093 20.5662867,14 22.5004199,14 C24.4337133,14 26,15.5669093 26,17.5" id="Fill-12" fill="#D8384B"></path>
            <path d="M29,41.49972 C29,43.4332453 27.4329654,45 25.5008399,45 C23.5661947,45 22,43.4332453 22,41.49972 C22,39.5673146 23.5661947,38 25.5008399,38 C27.4329654,38 29,39.5673146 29,41.49972" id="Fill-14" fill="#F9BE00"></path>
            <g id="Group-18" transform="translate(39.000000, 19.000000)">
                <mask id="mask-4" fill="white">
                    <use xlink:href="#path-3"></use>
                </mask>
                <g id="Clip-17"></g>
                <path d="M6.93137308,3.42652692 C6.93137308,5.28583462 5.42395,6.79245 3.56464231,6.79245 C1.70614231,6.79245 0.199257692,5.28583462 0.199257692,3.42652692 C0.199257692,1.56802692 1.70614231,0.0611423077 3.56464231,0.0611423077 C5.42395,0.0611423077 6.93137308,1.56802692 6.93137308,3.42652692" id="Fill-16" fill="#F9BE00" mask="url(#mask-4)"></path>
            </g>
            <path d="M15,7.49972002 C15,9.43296536 13.4339306,11 11.5005599,11 C9.56634938,11 8,9.43296536 8,7.49972002 C8,5.56675466 9.56634938,4 11.5005599,4 C13.4339306,4 15,5.56675466 15,7.49972002" id="Fill-19" fill="#00A0D9"></path>
            <path d="M32,4.5 C32,6.43281075 30.433216,8 28.5002799,8 C26.5673438,8 25,6.43281075 25,4.5 C25,2.56718925 26.5673438,1 28.5002799,1 C30.433216,1 32,2.56718925 32,4.5" id="Fill-21" fill="#F9BE00"></path>
            <path d="M18,16.9997028 C18,18.1046062 17.1043091,19 16,19 C14.8947994,19 14,18.1046062 14,16.9997028 C14,15.8950966 14.8947994,15 16,15 C17.1043091,15 18,15.8950966 18,16.9997028" id="Fill-23" fill="#D8384B"></path>
            <path d="M21,14 C21,15.1050364 20.1046062,16 19.0002972,16 C17.8950966,16 17,15.1050364 17,14 C17,12.895855 17.8950966,12 19.0002972,12 C20.1046062,12 21,12.895855 21,14" id="Fill-25" fill="#F9BE00"></path>
            <path d="M17,12 C17,13.104145 16.1040119,14 14.9997028,14 C13.8945022,14 13,13.104145 13,12 C13,10.895855 13.8945022,10 14.9997028,10 C16.1040119,10 17,10.895855 17,12" id="Fill-27" fill="#00A0D9"></path>
            <path d="M42,18 C42,19.1044421 41.1036839,20 40.0005942,20 C38.8951277,20 38,19.1044421 38,18 C38,16.8952607 38.8951277,16 40.0005942,16 C41.1036839,16 42,16.8952607 42,18" id="Fill-29" fill="#D8384B"></path>
            <path d="M18,21.0002971 C18,22.1042781 17.1035507,23 16,23 C14.8946665,23 14,22.1042781 14,21.0002971 C14,19.8963161 14.8946665,19 16,19 C17.1035507,19 18,19.8963161 18,21.0002971" id="Fill-31" fill="#00A0D9"></path>
            <path d="M9,20 C9,21.1044421 8.10473927,22 7.00059427,22 C5.89555787,22 5,21.1044421 5,20 C5,18.895855 5.89555787,18 7.00059427,18 C8.10473927,18 9,18.895855 9,20" id="Fill-33" fill="#D8384B"></path>
            <g id="Group-37">
                <mask id="mask-6" fill="white">
                    <use xlink:href="#path-5"></use>
                </mask>
                <g id="Clip-36"></g>
                <path d="M3.84682857,24.4478787 C3.84682857,25.5170912 2.98654286,26.3830412 1.92425714,26.3830412 C0.861685714,26.3830412 -2.85714286e-05,25.5170912 -2.85714286e-05,24.4478787 C-2.85714286e-05,23.3795287 0.861685714,22.5127162 1.92425714,22.5127162 C2.98654286,22.5127162 3.84682857,23.3795287 3.84682857,24.4478787" id="Fill-35" fill="#D8384B" mask="url(#mask-6)"></path>
            </g>
            <path d="M44,14 C44,15.104145 43.1042781,16 42.0008913,16 C40.8957219,16 40,15.104145 40,14 C40,12.8955579 40.8957219,12 42.0008913,12 C43.1042781,12 44,12.8955579 44,14" id="Fill-38" fill="#00A0D9"></path>
            <path d="M31,14 C31,15.1044421 30.1033202,16 29.0001486,16 C27.8946,16 27,15.1044421 27,14 C27,12.895855 27.8946,12 29.0001486,12 C30.1033202,12 31,12.895855 31,14" id="Fill-40" fill="#00A0D9"></path>
            <path d="M28,10 C28,11.1047393 27.1045752,12 26.0008913,12 C24.8957219,12 24,11.1047393 24,10 C24,8.8949636 24.8957219,8 26.0008913,8 C27.1045752,8 28,8.8949636 28,10" id="Fill-42" fill="#F9BE00"></path>
            <path d="M39,22.9997028 C39,24.1043091 38.1044421,25 36.9997029,25 C35.8952607,25 35,24.1043091 35,22.9997028 C35,21.8953938 35.8952607,21 36.9997029,21 C38.1044421,21 39,21.8953938 39,22.9997028" id="Fill-44" fill="#D8384B"></path>
            <path d="M43,28 C43,29.1047393 42.1056307,30 41.0002971,30 C39.8946665,30 39,29.1047393 39,28 C39,26.8955579 39.8946665,26 41.0002971,26 C42.1056307,26 43,26.8955579 43,28" id="Fill-46" fill="#D8384B"></path>
            <path d="M43,33 C43,34.104145 42.1040119,35 41,35 C39.8947994,35 39,34.104145 39,33 C39,31.8949636 39.8947994,31 41,31 C42.1040119,31 43,31.8949636 43,33" id="Fill-48" fill="#00A0D9"></path>
            <path d="M39,37.9997441 C39,38.5519447 38.5518874,39 38.000128,39 C37.4476008,39 37,38.5519447 37,37.9997441 C37,37.4475435 37.4476008,37 38.000128,37 C38.5518874,37 39,37.4475435 39,37.9997441" id="Fill-50" fill="#F9BE00"></path>
            <path d="M40,36.0002559 C40,36.5524565 39.5519447,37 39.0002559,37 C38.4477994,37 38,36.5524565 38,36.0002559 C38,35.4480553 38.4477994,35 39.0002559,35 C39.5519447,35 40,35.4480553 40,36.0002559" id="Fill-52" fill="#F9BE00"></path>
            <path d="M38,17.0002559 C38,17.5524565 37.5518874,18 37.0003839,18 C36.4476008,18 36,17.5524565 36,17.0002559 C36,16.4480553 36.4476008,16 37.0003839,16 C37.5518874,16 38,16.4480553 38,17.0002559" id="Fill-54" fill="#F9BE00"></path>
            <path d="M44,29.9997441 C44,30.5524565 43.5530826,31 43,31 C42.4481965,31 42,30.5524565 42,29.9997441 C42,29.4475435 42.4481965,29 43,29 C43.5530826,29 44,29.4475435 44,29.9997441" id="Fill-56" fill="#00A0D9"></path>
            <path d="M35,39.9997441 C35,40.5522006 34.5530255,41 34.0001279,41 C33.447998,41 33,40.5522006 33,39.9997441 C33,39.4475435 33.447998,39 34.0001279,39 C34.5530255,39 35,39.4475435 35,39.9997441" id="Fill-58" fill="#00A0D9"></path>
            <path d="M25,22 C25,22.552342 24.552342,23 24.0005119,23 C23.4474021,23 23,22.552342 23,22 C23,21.447658 23.4474021,21 24.0005119,21 C24.552342,21 25,21.447658 25,22" id="Fill-60" fill="#F9BE00"></path>
            <path d="M44,16.9997441 C44,17.5524565 43.5530826,18 43,18 C42.4481965,18 42,17.5524565 42,16.9997441 C42,16.4475435 42.4481965,16 43,16 C43.5530826,16 44,16.4475435 44,16.9997441" id="Fill-62" fill="#00A0D9"></path>
            <path d="M36,19.9997441 C36,20.5524565 35.5530826,21 35,21 C34.4481965,21 34,20.5524565 34,19.9997441 C34,19.4475435 34.4481965,19 35,19 C35.5530826,19 36,19.4475435 36,19.9997441" id="Fill-64" fill="#00A0D9"></path>
            <path d="M26,23.9997441 C26,24.5524565 25.5530255,25 24.9998721,25 C24.447998,25 24,24.5524565 24,23.9997441 C24,23.4475435 24.447998,23 24.9998721,23 C25.5530255,23 26,23.4475435 26,23.9997441" id="Fill-66" fill="#00A0D9"></path>
            <path d="M30,10 C30,10.552342 29.5527394,11 29.0010241,11 C28.4480287,11 28,10.552342 28,10 C28,9.44765805 28.4480287,9 29.0010241,9 C29.5527394,9 30,9.44765805 30,10" id="Fill-68" fill="#00A0D9"></path>
            <path d="M22,11.9997441 C22,12.5519447 21.5528539,13 21,13 C20.4484259,13 20,12.5519447 20,11.9997441 C20,11.4475435 20.4484259,11 21,11 C21.5528539,11 22,11.4475435 22,11.9997441" id="Fill-70" fill="#00A0D9"></path>
            <path d="M19,18.0002559 C19,18.5524565 18.5514903,19 18.0001279,19 C17.4474862,19 17,18.5524565 17,18.0002559 C17,17.4480553 17.4474862,17 18.0001279,17 C18.5514903,17 19,17.4480553 19,18.0002559" id="Fill-72" fill="#00A0D9"></path>
            <path d="M4,15.9997441 C4,16.5519447 3.5518874,17 2.99961612,17 C2.44760077,17 2,16.5519447 2,15.9997441 C2,15.4475435 2.44760077,15 2.99961612,15 C3.5518874,15 4,15.4475435 4,15.9997441" id="Fill-74" fill="#F9BE00"></path>
            <path d="M7,10 C7,10.5520594 6.55271238,11 6.00025589,11 C5.44831116,11 5,10.5520594 5,10 C5,9.44794065 5.44831116,9 6.00025589,9 C6.55271238,9 7,9.44794065 7,10" id="Fill-76" fill="#00A0D9"></path>
            <path d="M6,16.9997441 C6,17.5524565 5.55222734,18 5.00102407,18 C4.44751664,18 4,17.5524565 4,16.9997441 C4,16.4475435 4.44751664,16 5.00102407,16 C5.55222734,16 6,16.4475435 6,16.9997441" id="Fill-78" fill="#F9BE00"></path>
            <path d="M20,21.0002559 C20,21.5524565 19.5523992,22 19.0003839,22 C18.4470889,22 18,21.5524565 18,21.0002559 C18,20.4475435 18.4470889,20 19.0003839,20 C19.5523992,20 20,20.4475435 20,21.0002559" id="Fill-80" fill="#F9BE00"></path>
            <path d="M5,26.0002559 C5,26.5524565 4.55220061,27 4.00025589,27 C3.44703173,27 3,26.5524565 3,26.0002559 C3,25.4475435 3.44703173,25 4.00025589,25 C4.55220061,25 5,25.4475435 5,26.0002559" id="Fill-82" fill="#F9BE00"></path>
            <path d="M19,34.0002559 C19,34.5524565 18.5522006,35 18.0002559,35 C17.4472876,35 17,34.5524565 17,34.0002559 C17,33.4475435 17.4472876,33 18.0002559,33 C18.5522006,33 19,33.4475435 19,34.0002559" id="Fill-84" fill="#00A0D9"></path>
            <path d="M21,33.0002559 C21,33.5524565 20.5523992,34 20.000128,34 C19.4470889,34 19,33.5524565 19,33.0002559 C19,32.4475435 19.4470889,32 20.000128,32 C20.5523992,32 21,32.4475435 21,33.0002559" id="Fill-86" fill="#00A0D9"></path>
            <path d="M11,20 C11,20.5520594 10.5511771,21 9.99974411,21 C9.44728762,21 9,20.5520594 9,20 C9,19.4479406 9.44728762,19 9.99974411,19 C10.5511771,19 11,19.4479406 11,20" id="Fill-88" fill="#00A0D9"></path>
            <path d="M6,23 C6,23.5520594 5.55137556,24 4.99987204,24 C4.44708893,24 4,23.5520594 4,23 C4,22.4479406 4.44708893,22 4.99987204,22 C5.55137556,22 6,22.4479406 6,23" id="Fill-90" fill="#00A0D9"></path>
            <path d="M14,19.0002559 C14,19.5519447 13.5520594,20 13,20 C12.447429,20 12,19.5519447 12,19.0002559 C12,18.4475435 12.447429,18 13,18 C13.5520594,18 14,18.4475435 14,19.0002559" id="Fill-92" fill="#D8384B"></path>
            <path d="M27,22.0002559 C27,22.5519447 26.552002,23 25.9998721,23 C25.4474862,23 25,22.5519447 25,22.0002559 C25,21.4475435 25.4474862,21 25.9998721,21 C26.552002,21 27,21.4475435 27,22.0002559" id="Fill-94" fill="#D8384B"></path>
            <path d="M24,13.0002559 C24,13.5519447 23.552002,14 23.0001279,14 C22.4474862,14 22,13.5519447 22,13.0002559 C22,12.4475435 22.4474862,12 23.0001279,12 C23.552002,12 24,12.4475435 24,13.0002559" id="Fill-96" fill="#D8384B"></path>
            <path d="M22,31.0002559 C22,31.5519447 21.552002,32 20.9998721,32 C20.4472304,32 20,31.5519447 20,31.0002559 C20,30.4475435 20.4472304,30 20.9998721,30 C21.552002,30 22,30.4475435 22,31.0002559" id="Fill-98" fill="#D8384B"></path>
            <path d="M38,40.0002559 C38,40.5519447 37.5520594,41 37,41 C36.4476848,41 36,40.5519447 36,40.0002559 C36,39.4477994 36.4476848,39 37,39 C37.5520594,39 38,39.4477994 38,40.0002559" id="Fill-100" fill="#D8384B"></path>
            <path d="M35,17.0002559 C35,17.5519447 34.552002,18 34.0001279,18 C33.4474862,18 33,17.5519447 33,17.0002559 C33,16.4475435 33.4474862,16 34.0001279,16 C34.552002,16 35,16.4475435 35,17.0002559" id="Fill-102" fill="#D8384B"></path>
            <path d="M38,20.0002559 C38,20.5519447 37.5520594,21 37,21 C36.447429,21 36,20.5519447 36,20.0002559 C36,19.4475435 36.447429,19 37,19 C37.5520594,19 38,19.4475435 38,20.0002559" id="Fill-104" fill="#D8384B"></path>
            <path d="M33,40.9997029 C33,42.1047393 32.1054978,43 31.0002972,43 C29.8959881,43 29,42.1047393 29,40.9997029 C29,39.8949636 29.8959881,39 31.0002972,39 C32.1054978,39 33,39.8949636 33,40.9997029" id="Fill-106" fill="#F9BE00"></path>
            <path d="M20,31.0005943 C20,32.1050364 19.1050364,33 17.9997029,33 C16.8952607,33 16,32.1050364 16,31.0005943 C16,29.8955579 16.8952607,29 17.9997029,29 C19.1050364,29 20,29.8955579 20,31.0005943" id="Fill-108" fill="#F9BE00"></path>
            <path d="M7,33 C7,34.104145 6.10490342,35 5.00029718,35 C3.89539376,35 3,34.104145 3,33 C3,31.8949636 3.89539376,31 5.00029718,31 C6.10490342,31 7,31.8949636 7,33" id="Fill-110" fill="#D8384B"></path>
            <path d="M24,35 C24,36.1047393 23.1053335,37 22.0002971,37 C20.8964493,37 20,36.1047393 20,35 C20,33.8955579 20.8964493,33 22.0002971,33 C23.1053335,33 24,33.8955579 24,35" id="Fill-112" fill="#D8384B"></path>
            <path d="M17,34 C17,35.104145 16.1047393,36 15.0005943,36 C13.8952607,36 13,35.104145 13,34 C13,32.8949636 13.8952607,32 15.0005943,32 C16.1047393,32 17,32.8949636 17,34" id="Fill-114" fill="#D8384B"></path>
            <path d="M15,41.0005943 C15,42.1050364 14.1046728,43 12.9998514,43 C11.8947329,43 11,42.1050364 11,41.0005943 C11,39.8961521 11.8947329,39 12.9998514,39 C14.1046728,39 15,39.8961521 15,41.0005943" id="Fill-116" fill="#00A0D9"></path>
            <path d="M22,44.0002971 C22,45.1045752 21.1040119,46 19.9997028,46 C18.8945022,46 18,45.1045752 18,44.0002971 C18,42.8957219 18.8945022,42 19.9997028,42 C21.1040119,42 22,42.8957219 22,44.0002971" id="Fill-118" fill="#D8384B"></path>
            <path d="M4,20 C4,21.104145 3.10460624,22 2.00029718,22 C0.895393759,22 0,21.104145 0,20 C0,18.8949636 0.895393759,18 2.00029718,18 C3.10460624,18 4,18.8949636 4,20" id="Fill-120" fill="#00A0D9"></path>
            <path d="M5,29 C5,30.104145 4.10355074,31 3,31 C1.89466647,31 1,30.104145 1,29 C1,27.8949636 1.89466647,27 3,27 C4.10355074,27 5,27.8949636 5,29" id="Fill-122" fill="#00A0D9"></path>
            <path d="M7,13 C7,14.1035507 6.10427807,15 5.00089127,15 C3.89572193,15 3,14.1035507 3,13 C3,11.8949636 3.89572193,11 5.00089127,11 C6.10427807,11 7,11.8949636 7,13" id="Fill-124" fill="#00A0D9"></path>
            <path d="M24,25.50028 C24,27.4332453 22.4320963,29 20.4997201,29 C18.566784,29 17,27.4332453 17,25.50028 C17,23.5667547 18.566784,22 20.4997201,22 C22.4320963,22 24,23.5667547 24,25.50028" id="Fill-126" fill="#00A0D9"></path>
            <path d="M13,36.50014 C13,38.433028 11.4338053,40 9.50083993,40 C7.56647468,40 6,38.433028 6,36.50014 C6,34.566972 7.56647468,33 9.50083993,33 C11.4338053,33 13,34.566972 13,36.50014" id="Fill-128" fill="#F9BE00"></path>
            <path d="M34,19.5 C34,21.4325308 32.433028,23 30.5006999,23 C28.566412,23 27,21.4325308 27,19.5 C27,17.5666293 28.566412,16 30.5006999,16 C32.433028,16 34,17.5666293 34,19.5" id="Fill-130" fill="#F9BE00"></path>
            <path d="M39,31.0002906 C39,35.418483 35.4189037,39 30.9994188,39 C26.5813869,39 23,35.418483 23,31.0002906 C23,26.5818076 26.5813869,23 30.9994188,23 C35.4189037,23 39,26.5818076 39,31.0002906" id="Fill-132" fill="#00A0D9"></path>
        </g>
    </g>
</svg>